<svg width="32" height="32" viewBox="0 0 32 32" fill="none" xmlns="http://www.w3.org/2000/svg">
<path fill-rule="evenodd" clip-rule="evenodd" d="M27.5553 13.2057H3.78998C3.23798 13.2057 2.78998 12.7577 2.78998 12.2057C2.78998 11.6537 3.23798 11.2057 3.78998 11.2057H27.5553C28.1073 11.2057 28.5553 11.6537 28.5553 12.2057C28.5553 12.7577 28.1073 13.2057 27.5553 13.2057Z" fill="#8456EC"/>
<path fill-rule="evenodd" clip-rule="evenodd" d="M21.6016 18.4128C21.0496 18.4128 20.5963 17.9648 20.5963 17.4128C20.5963 16.8608 21.0376 16.4128 21.5896 16.4128H21.6016C22.1536 16.4128 22.6016 16.8608 22.6016 17.4128C22.6016 17.9648 22.1536 18.4128 21.6016 18.4128Z" fill="#8456EC"/>
<path fill-rule="evenodd" clip-rule="evenodd" d="M15.6849 18.4128C15.1329 18.4128 14.6796 17.9648 14.6796 17.4128C14.6796 16.8608 15.1209 16.4128 15.6729 16.4128H15.6849C16.2369 16.4128 16.6849 16.8608 16.6849 17.4128C16.6849 17.9648 16.2369 18.4128 15.6849 18.4128Z" fill="#8456EC"/>
<path fill-rule="evenodd" clip-rule="evenodd" d="M9.75584 18.4128C9.20384 18.4128 8.74918 17.9648 8.74918 17.4128C8.74918 16.8608 9.19184 16.4128 9.74384 16.4128H9.75584C10.3078 16.4128 10.7558 16.8608 10.7558 17.4128C10.7558 17.9648 10.3078 18.4128 9.75584 18.4128Z" fill="#8456EC"/>
<path fill-rule="evenodd" clip-rule="evenodd" d="M21.6016 23.5951C21.0496 23.5951 20.5963 23.1471 20.5963 22.5951C20.5963 22.0431 21.0376 21.5951 21.5896 21.5951H21.6016C22.1536 21.5951 22.6016 22.0431 22.6016 22.5951C22.6016 23.1471 22.1536 23.5951 21.6016 23.5951Z" fill="#8456EC"/>
<path fill-rule="evenodd" clip-rule="evenodd" d="M15.6849 23.5951C15.1329 23.5951 14.6796 23.1471 14.6796 22.5951C14.6796 22.0431 15.1209 21.5951 15.6729 21.5951H15.6849C16.2369 21.5951 16.6849 22.0431 16.6849 22.5951C16.6849 23.1471 16.2369 23.5951 15.6849 23.5951Z" fill="#8456EC"/>
<path fill-rule="evenodd" clip-rule="evenodd" d="M9.75584 23.5951C9.20384 23.5951 8.74918 23.1471 8.74918 22.5951C8.74918 22.0431 9.19184 21.5951 9.74384 21.5951H9.75584C10.3078 21.5951 10.7558 22.0431 10.7558 22.5951C10.7558 23.1471 10.3078 23.5951 9.75584 23.5951Z" fill="#8456EC"/>
<path fill-rule="evenodd" clip-rule="evenodd" d="M21.058 7.72134C20.506 7.72134 20.058 7.27334 20.058 6.72134V2.33334C20.058 1.78134 20.506 1.33334 21.058 1.33334C21.61 1.33334 22.058 1.78134 22.058 2.33334V6.72134C22.058 7.27334 21.61 7.72134 21.058 7.72134Z" fill="#8456EC"/>
<path fill-rule="evenodd" clip-rule="evenodd" d="M10.287 7.72134C9.73505 7.72134 9.28705 7.27334 9.28705 6.72134V2.33334C9.28705 1.78134 9.73505 1.33334 10.287 1.33334C10.839 1.33334 11.287 1.78134 11.287 2.33334V6.72134C11.287 7.27334 10.839 7.72134 10.287 7.72134Z" fill="#8456EC"/>
<mask id="mask0_18_155" style="mask-type:alpha" maskUnits="userSpaceOnUse" x="2" y="3" width="27" height="27">
<path fill-rule="evenodd" clip-rule="evenodd" d="M2.66666 3.43881H28.6667V30H2.66666V3.43881Z" fill="white"/>
</mask>
<g mask="url(#mask0_18_155)">
<path fill-rule="evenodd" clip-rule="evenodd" d="M10.028 5.43881C6.57066 5.43881 4.66666 7.28281 4.66666 10.6308V22.6961C4.66666 26.1175 6.57066 28.0001 10.028 28.0001H21.3053C24.7627 28.0001 26.6667 26.1521 26.6667 22.7975V10.6308C26.672 8.98415 26.2293 7.70415 25.3507 6.82415C24.4467 5.91748 23.0533 5.43881 21.3173 5.43881H10.028ZM21.3053 30.0001H10.028C5.48799 30.0001 2.66666 27.2015 2.66666 22.6961V10.6308C2.66666 6.19348 5.48799 3.43881 10.028 3.43881H21.3173C23.596 3.43881 25.48 4.12148 26.7667 5.41081C28.016 6.66548 28.6733 8.46948 28.6667 10.6335V22.7975C28.6667 27.2401 25.8453 30.0001 21.3053 30.0001Z" fill="#8456EC"/>
</g>
</svg>
